<mxfile host="app.diagrams.net" modified="2024-02-05T08:02:17.984Z" agent="Mozilla/5.0 (Windows NT 10.0; Win64; x64) AppleWebKit/537.36 (KHTML, like Gecko) Chrome/121.0.0.0 Safari/537.36" etag="kBUyuxDNE8BTxsCO8UQF" version="23.1.1" type="device">
  <diagram name="Page-1" id="z9O2OyfHk79_M2J__hJT">
    <mxGraphModel dx="1500" dy="746" grid="1" gridSize="10" guides="1" tooltips="1" connect="1" arrows="1" fold="1" page="1" pageScale="1" pageWidth="1100" pageHeight="850" background="#000000" math="0" shadow="0">
      <root>
        <mxCell id="0" />
        <mxCell id="1" parent="0" />
        <mxCell id="OzT394bi7lTzNWAu2zYw-14" style="edgeStyle=orthogonalEdgeStyle;rounded=0;orthogonalLoop=1;jettySize=auto;html=1;entryX=0.5;entryY=0;entryDx=0;entryDy=0;strokeWidth=2.5;strokeColor=#FFFFFF;" parent="1" source="OzT394bi7lTzNWAu2zYw-1" target="OzT394bi7lTzNWAu2zYw-3" edge="1">
          <mxGeometry relative="1" as="geometry" />
        </mxCell>
        <mxCell id="OzT394bi7lTzNWAu2zYw-15" style="edgeStyle=orthogonalEdgeStyle;rounded=0;orthogonalLoop=1;jettySize=auto;html=1;entryX=0.5;entryY=0;entryDx=0;entryDy=0;strokeColor=#FFFFFF;strokeWidth=2.5;" parent="1" source="OzT394bi7lTzNWAu2zYw-1" target="OzT394bi7lTzNWAu2zYw-4" edge="1">
          <mxGeometry relative="1" as="geometry" />
        </mxCell>
        <mxCell id="OzT394bi7lTzNWAu2zYw-1" value="&lt;b&gt;START&lt;/b&gt;" style="ellipse;whiteSpace=wrap;html=1;fillColor=#366ad3;fontColor=#ffffff;strokeColor=#001DBC;" parent="1" vertex="1">
          <mxGeometry x="440" y="10" width="200" height="80" as="geometry" />
        </mxCell>
        <mxCell id="OzT394bi7lTzNWAu2zYw-18" style="edgeStyle=orthogonalEdgeStyle;rounded=0;orthogonalLoop=1;jettySize=auto;html=1;strokeColor=#FFFFFF;strokeWidth=2.5;exitX=0.5;exitY=1;exitDx=0;exitDy=0;" parent="1" source="OzT394bi7lTzNWAu2zYw-3" target="OzT394bi7lTzNWAu2zYw-4" edge="1">
          <mxGeometry relative="1" as="geometry">
            <mxPoint x="830.0000000000001" y="252" as="targetPoint" />
            <mxPoint x="296.6" y="250" as="sourcePoint" />
            <Array as="points">
              <mxPoint x="297" y="240" />
              <mxPoint x="297" y="290" />
              <mxPoint x="800" y="290" />
            </Array>
          </mxGeometry>
        </mxCell>
        <mxCell id="OzT394bi7lTzNWAu2zYw-3" value="u" style="rounded=1;whiteSpace=wrap;html=1;fillColor=#6a00ff;fontColor=#ffffff;strokeColor=#3700CC;strokeWidth=2;strokeColor=#FFFFFF;" parent="1" vertex="1">
          <mxGeometry x="220" y="140" width="150" height="100" as="geometry" />
        </mxCell>
        <mxCell id="OzT394bi7lTzNWAu2zYw-4" value="&lt;br&gt;&lt;br&gt;&lt;br&gt;&lt;br&gt;&lt;h4&gt;Management&lt;/h4&gt;" style="rounded=1;whiteSpace=wrap;html=1;fillColor=#6a00ff;fontColor=#ffffff;strokeColor=#3700CC;strokeWidth=2;strokeColor=#FFFFFF;" parent="1" vertex="1">
          <mxGeometry x="730" y="140" width="150" height="100" as="geometry" />
        </mxCell>
        <mxCell id="OzT394bi7lTzNWAu2zYw-5" value="Farmer" style="shape=image;verticalLabelPosition=bottom;labelBackgroundColor=none;verticalAlign=top;aspect=fixed;imageAspect=0;image=data:image/png,iVBORw0KGgoAAAANSUhEUgAAAQAAAAEACAYAAABccqhmAAAACXBIWXMAAAsTAAALEwEAmpwYAAAY60lEQVR4nO2dd7RXxbXHv1ywBbFLLM8sUfPEgmCLMUFfomKLit0kJkZjL4mxiy0EjYIaFcGKxvaeSTRRjA1FxBaDBtSoWLCLitgFBJRy39phE2+Qe+/M+Z1zZvbM97PW/kOW93dm9pk9Z8ouACGEEEIIIYQQQgghhBBCCCGEEEIIIYQQQgiJg6UAdAfwXQC7ADgAwPEABgG4QuU6ADep3K0y/7+va/H/DdK/PUB/67v6211Cd5KQnFkRwDYAjgJwPoA/AxgL4EMAzTXJB/pMefZ5AI4EsLW2jRBSEmsD+Kka2b0AJtVo5EXlHQD3ADhX2/7fHA2EtE8nABsDOFqX45MjMOay5BMAIwH019XL4hwQhABrADhEDX5KBIZal0zXCeEkAOtwIJBc6AhgKwCDAUyIwBBjkRcBXATge6ojQpKhCUBvNfp3IjC22EUOGK8HsDMnA2KZ9QBcCODtCIzKqkwE8DsA64Z+mYS4IIdbe+n+dm4EBpSSjNXzks4ciiQ2xEHmEj3tDm0oqYvoeKhekRISFDm0uj3Sr/00AG8AeELv5eWm4doWnn5yTz9Q5dwW/36t/r/36N++ob/VHJnMAfBXAFvSBkjd9/U/0iVpSAP4FMCjemA2AMDP9YZhjYru2RfX395KnzVAn/2otiWkLh4HsA8PDUnVp/n7Brq+e1O/yqeqX363yF51B21TXwCnAbhZD/Dq1tMLOjnLuyKktMG9J4DxNQ3i2QDGAbgYwA8BrGb4Pa6mBjlEtxNzatLhMwB213dHSGG2B/BUDQP2XY3EE2NZPuH3tQKAHwO4oSZXZ5l0+oTuNLGHnDDfUcNydYD6/+e4ZJU+bwrgrBq2VXJY+M3QHSbxs4yeis+saCC+rh6B4hlIvuo41V/dgqvQ/Req+6WpeLIgslfcH8D7FQy8zwBcA+A7VLszvfU68rMK3sdkDVMm5F+sobH2Vew/D+cXpyHka30EgCcreD8jAKxOG8iXJnUtnVrioJqjjkES807KZWP1O5hd8ursJPoP5Om6+3jJA+lSHjTVgmQYulxzCpT1/sYwc1E+HFri3vIzdaOV6y1SL101UrCsiWAagIP5EtNFjHR4SYPlc/WbXzl0p8i/EpEOLHEiuJUTenr0KSmhpuw/rwSwaugOkYV6HV5Vkrfh2xrzQBK43juppIOj0QB6he4QaZcNATxQ0mTfP1MnrSToonnrywjE2S90Z4g3klLslZK8CJeh/u15lb1YgueYuKkyhbVdltDzgVkNjoXnmb3Y1szf6N2+XBFuELojpDR6lZC/YQqAHfhO4uaoBvf7cq13LB1Dkk3kcnyDtwWz9BqZRHjY17/BGf5pAD1Cd4TU4gQ2rsGxMpiHg3Ht8/7SwMuUa6NzACyK/FgEebKo1luc08C4kQxNPB+K4KT/gQZP+CWxZ2oToqxkdtMlr7jN3gngIU1u8iqAjxbYKs3Uf5ukX8fbNPPuiQC2S7jq79YA3mpg/IwCsGToTuTKsurDXfTljUzAhVf2tZsA+JWugt5scGnblkiOvz9oRp/lkJZL8egG9CJJUXlNGOClFQ0RnatXQ1Zr0IkX4nEawlxmJKOPzNYJdHedhKzTCcD5DaR3H5fAx8QMqwB4roGrHBm0Flc7BwG4v8bEmj4rg2MTOUPZq4FJVZLGMjakhi//cw2k41of9mLgb6wwRVmZMkFTlltngwa2UuMTPi+J4itYNEPvWGOz82YA7ovAqIvI1Qmcjq+iGZ2K9F/+jmcCFZz2j2nAl9tKQcnV9TAvxlJjvkZguZ4B9HT/zgYOBnk7UBJfA/BgwRdxmZHDPjmEOrmiJJghtwQrwTYdNfy76BWh9ZVQcJo0QUORF3Cekcow3fSL0ZygiHflFsYPCDsAuKABZyGGEzfAhQUV/xvYYKdMSopP1xuMY3R/bZEzC/ZdUsaRAvyioMLFe80CJ0d4pVeHzNHlcV+DX8eTCvb5sNANt8YuBaP6TkDaS8rUZLwWQLWwVWtkEpAowh3//QukTXpohlZfJUs0oAUuicDwYpPRmsTFCgMKOqGtG7rhsSP3py8VPPCzwNkRGFus8rlu+6xwQcHMQkuFbnisNGlVHV+lXmpkCXlQBEZmQW7Wq9/Y6VDwivAWI+O1ds4ooMzbjNzzb27EnTcWedhITcWOBcvIywEwacH2BU7E/2HEw08G8msRGJU1GWdkEliyQIah2ZqLgGjwxKQCEWhWinPcEIExWT4ctOBEtDKANwoUH8k+hLhDgSXUp4ZOjH8QgRFZF8loZOX2aopn38TLFbln8fVRmATJ7AEbLFpCbQLKPB3sDRv0LRDIJSXqs2TdAima5RrNCuKRSAMuRwfvGwrnHuTZN/F5WRuZ0anAwck9Rk785x8MyaDlBFCeDq6HDToWyOXwuKGxHcSdUg5YlocdxCWZxl+uDuSWqGfoF+txsD3Rs3+SVi0Lvum59J+tIaWWcu2/wwmgkglwBOzwPc+r7WkaGp78qf9Iz5cuBTotIYeU/PpXpwPJk2iFgZ59G5W6l+DBBXL5WbgHbomcVXACqE4Hw2BrNfiYZ/9+hkSRPfyHnksi2S5YYqVMY/zrlGnGkm6u7Rnd+p6x/jkzxPNFHw17HBaBgeQgElhliWM8+yeRhkmxniZFcFXA3w1mi4FW6wltHDmIBIFZoqNe9bn274vUfANGeMaFWyvgAc0AOyMC48hBphsJGV7QVfgLjz6Ki3wS7JxoQs+FXfuENoycxGKKrd969lGiZE0jy/hnPXPJLwab9I/AKHISSctlcZX4qkcfnzK6Ff43+3q+VFktWOWuCIwiJ5HrVovs4dlPKVhq1t/fJxpODtAs81YERpGTfGTYaWa0Z+Zkk3ECB3i6+8ohiWUfh9AGkaOsksmt2L4wxiKeex1JlW2Z3hEYQ45iKUZkQa7wPBuTFbUZ9ve80rE6k8/nJxEYQ44i48wqK3sGxZlZBXTQopCp5fRvi1MiMIYc5dfIp/blEzDCth6dmqqx09a5LAJjyFEuhm2+7hknsHVq7rDWQn1b4+YIjCFH+T/YZ5BHf+WqOWo28EiKKF//5ZAGvjkOKOXo4G7YZwWPVcDc2N3kr/J4eRchHXzzG1LK0cEDSIOhHn2WcmRR0sUjL7rc+6+BdJCijzTqMCXEUqCb2oTryllszXQs/B+RFkUqGlMa14GEjafCn63nQxjr0YFvIS1Y+y/MhCbptlJhc8v93sij8WOQHm/yix5kAngQafG4R9+jSpF+qUfDD0R6cAsQZgKwGhFYRtLcaHwgOmkiQ9fCnlI1JzWe4QogyAQwHGnRRQ/5XPo+KZYowe0SrPRa5fkHJc8U4VVcpW8FYw3eBGki99E07Pp1cCbSYzNLH9RFPHL9S2KDVPkLJ4AgE+CRSJMXHPv/fugw4R09XtYZSBef2G5KeTrYDWkywEMHEnxnYuCvg3Q5m4YdZGKTu/MUWd9DB3IDF/39t+QHSBmpYsQve/06SLma7nhHHYgTWvSz1GlIG1mKcgKoVwdzNM12qvzaQxfdQzTweI8GRh3CWAJyu8EJoF4dvIy06emhC6k9WDujHBs3EekjmV04AdSrA2v1AYuk1ns7Vo/IJbWGn+n45ZJflqsHF6UcHZyD9Pm9oy6kJuUSdTZsG48XlepVzYJI0kYad306kEzMqbO3hz7+J8YDCqmGujTy4EZOALVOgBKBmjrLehQQkczU0ZX7/hvywefUltKYDmYZLA9elMccdXInakIikD5xbNS5yAffoo+U4jp4EvlwgUetxKbYrif6Ih++QaOubVKzXkquqg9LLdfth3ikMO6KvHiXk0AtE8BPkQ8rxZYr8BLHxkhp8Ny4gxNALRPAmsiLV2LKEvSwY2OuR37wILB6439P/S5y4n9jqZMgiv/YsTHHIT98wqMpxXTwJ+THiY66kdwclbK6x4vqg/yQMk807Gp1IIkzc2MHD/2sWmVDdvFoiPjH5whrBFQ7AaQcAtwaq3roRyaLyjjBsRGTkS8+FV4ofjpIPQKwLT6MITLQ9QZAIgWR6RbANUU6xV8HHwBYEXnyYAw3AXc5NkJSheWI1KunYVerg2uRJ7931M9fq2zEc46N6If8+DaNv5bJb24mgUALcrqjfqRITWVXgJ85NuJHyI8/cAKobfUTNBFmIH7iqBvJSxHcJTHVbK2t0dljcqQ0roOP606AEQG9PfSzYugKwDJZ5IRPeTRKOToImg8/8qvAXlU0oI/jw2fXFZZocH9GKU8HpyIvOmomZBfdbF1FA37s+HC5BssNOZmmcderg6uRHx866mafKh5+lOPDn0d+SDYWTgD16qC2DDgR8aKjbo6o4uH9HR/+CPLjPk4AtU+AI5Efj4aswznU8eHDkR+3cwKofQKo1OHF+DgbHHKfew3y45oABpC7XIf8uM5RN+I1GCztdY5OGmdEYBC5Scrl5hutxi0JRIJFuV2E/NgzAoPITUTnuXGxo25uCrn/yCkV+HzWjcAgcpN1kB/nh6ybeI/jw89CfixCV+Bajf8z1Xlu/NZRP1K4p3RGOz48x72ZzwRJaVwHlQzwhJLO3h9yAhC32Bw5nsZd2+Qmmaly5AxH/Yitlg63AG0jVVn4da9HBz2QJ2c56kdsNVjRi0HIl3GcBCo3/rHIl/NCOknd4vjwC5Ev4oPNVUC1Ojgc+XKxo47kyj5YxpscHYHm00UzInMSqEYHk1XHuXK5o57EaS8tN0RD/JITQGUT4NHIm2tDuuMPcXz4rcibxQA8zUmgdON/RnWbM7eFDAZyDQeW4qG5sx6A6ZwESjP+mQB6hn6phsKBTw+5tJXU4QTYFcAsTgING//sqjLcJJwQ5MgqHr6v48NzLgu2sFTOMytYDuciM1WHZB7vhUzL71qhdFaG9dvbQlKkT4jAmKzJSxmml2+LJl0NuehOslSXzqYeLy+3tODtsTiAf0ZgVFbkn6oz8iUre+hvYwQuDCJlskgxN04KcCYHz1f4jsfYkCK1pdPB42T7h1U0wDhb0LidB7AMdlIsLb+ESgc/hTy5ykYYpZOWt+YXvm0dvKdFMMh/ckoMt3AjHRtxWZWNMIyrM1XOkmNKOReGOervLkTQCMmTT77KxhEYWOyyIQfOQrk/ho/vyY6NoC9A69BNuPVx82SVg9c47zvaniSmqYydPWbyrlU2xDAHRPCVjVX2C/1yErgC3L7KhnTzaMg2VTbEMJLMcmIExhabiE4WDf1yEig/v1qVDZGrwKmODTmmyoYY58QIDC42OTb0S4mY4xx1+EkdXrhjHBsjsctk4XQGMCkCo4tF3gbwNQ6WhnNxSLRg5Vzl2JgX6miMYQ6PwPBikUNCv4zIeclRj1fW0ZhDHRsztyqXxITOAlwdq1KWF9RJiiycrh66PAg10NOjQXJrQFpn2wgMMLTwsLhtdvPQpSSiqRxx0/zUsUHn1NEg4/wpAiMMJZVUsc00FfinGjIclVfSQ3U1yDCrAPgoAmOsWyQu4uuhlZ9QGrB762zU2Y6N+gLA0nU2zCh7RGCQdcveoZVugGU80spJzs7acM0O1Ky58Uj7XB+BUdYluaeOd2XPWM9SOnvkumNkoBtS8GJ8BMZZR3rvJSsen6kwzFGn00NkUHI9B3it7oYZpptH0IdF+RDAWqGVbIg3QhYDbY9+Hi++e4gGGmWbRDMJzwDw/dDKTbTa9PEhGriJRwNPDdFAw+yiB6jNichs3c+S8gvxNIcqmtLkkaf8qRANNI5rMVYLIn0hfjzrqNt3Qqbhdz2kEOE2IN9bAQlmIe5099Bt0Grc23s0lNuAairBWhBGhla3/A/qSi0JHD72KPZA3OEEkC/PeXhTBg+kuiF0xZLMY8AtCFcA7nzbQ69XIwJ2tbJfMQYngDwZ5mFPOyECFvVwXpGURcz84gYngPzo7BFpO1lzSkTBUI9Zi5lf3eAEkB8/97CjCxERPk5Bj4RurBE4AeTH3z3sqBciw6f89WahG2uAPwY8tCtbbgytzMSq/z4Dw6mLRegZ1j53RGC4ZcntNYw/69zsoc8oU+4vp6WJXX3DJfKNtM6DERhuWTKaL7pNVlebcNGl2NjyiBTXlOHNmuuMtM4TERhuWTKWL7pNBnvo8nJEjE/G4E911UAWzoQIDLcskfTnZOGs6FFta66GCUfNAx4D46zQjY2YSYlV/iEL51wPPY6EAXb36NAUFg9plSkRGG5ZIn0hX0WyIk/z0KPkiYiejlrtxbVTrB3wVdbS5V5zIiJ9WTPAWIyd33nocHydef8b5WceHZuq+yDyJbdHYLRly618wf/Byh63ZiL7whASoviqR+cYJFTMn8Ka/CrgmLR8Y/aSrqxN4VpEtFnvQHuEbnAkOktp6b+gSN9+EVrJEdDL496/WWMEzCFRgm96dHIE8qVJMyalbPwtJ4F+lvazAVPqi7weU9SfLwd6Do4dkedJ8N0RGGbdMgrAqsiP3Tz1ZDp6tqNHdtP5DiO1VzgJqJtDNa1Tc6YifT88hrRWNSG5MF7x0M9TKayUdvIcFAOQPtt7Toypi+TA+wHSZ6CnXrZDIozy6PTnANZDeshMvjOAv0VgcLHKk7rkTXFF0MOz2IucEyTDpgDmeCYNMb/0aVH08zBP56jc5WUAv9Ty2CnQBGCMR//lhmBDZJzssFn3hpbpqZWRU3LprVuk6u01ADaHbY727HeSfjHLeVa+FS+ptWGvj4foCia08aQmr+se2lp14XV0IvM5GI023r9RDi4QRx77Hejiure/KbGCnjHLWP2qxu5CvgiAxz37tj8Spskz8aHIbxBnP76vy1PXNM6U8nUgZdRv0bv1xRAf53j255GQhT7r3Bt/7qGUWRHtAeUkdxCAiTTo6Ca0jwBcCWDLSA6Qt/R0952Zkzv8GZ4v982Ay71VdbnJfb0dmahptjYK6N35lmebT0FGyN5onKeC7q0xIkriGPYBcJ/n9SUlPh1IbsUjACxd09jp5Onr36znBCn6PrR7OjojMi/BtfSkeXIEA5dSrg5m6EHtNpF5+820kOevKvp5KmtOBS6j8rXfW7/2OUTjUeYVsTmyAkejvgXG0AnImCZPN+FmPXVfv6Q7ewnBfZdGke2kMBXARZqXv4wYf9fsvi23tTEcWAZPjTS5gFPISgWf9w0AQzyTMVLS1sEsrVZV9MOySoGboUl6WEg06mlOAWcQn1LjXXV/5nvuQMlHB3P1nMDHA3UJAI95PkfGeh9afmOHJ81aT629JdRSmnvdxx2TkrcOZmvsSntfaLmVGl7g91kPo6TrE5ErWvGeatJcatzjhzcoq/IJgGNbcUeXMXd1gd8cmeOVnysrAHitgFLFO68l6xfwwaZQB81t5OT/VgM5/VuGObMcXjtsUPCArp/OrCfp3SoNmjooe1swUGMOTi/w91Nzvu/3Za+Cd/KSU5CGTx1UOQZeL/A3MpZ3DW1UqccLUKiDWMdAv9DGZJUhEbw8CnXQ3IAO5JCaFKSjxnvTCKkDi2Pgdp74N444WjCTbvjBTIGXDsQ5qDM//eVdDz7DQUgjNDIGnk45r18ouup9bOiXS6EOmtvQwQsNxKmQdhDXzOc5ADkJRToGJmhgEKmQ//Ksr0ahDuoYAy9lWuw0CBLSS6cfGnYsk/vz+mEiNZ8JPBnBy6fkrYNxBuoTJIukdGK23vBGkKs8VGOyUdIKkhTk7ggGAyUvHdyhPiokAiQKcGgEg4KShw6GGShZlyVSwIN5/MMbSKoyF0D/0IOctM1uWlk49GChpKWDaZr2mxhgYwBvRDBoKGno4FUAG4Ye1MQP8cUeEcHgodjWwV1M42WXDpoijOcC4Q3J4n5/IAt3pMFOAD6IYFBRbOjgPQA7hB60pPxAojsjGFyUuHVwLwN60t4SHMJbguBGFqPM0O1i9rX6cqCHVogNPegocejgCQDrhR6UpF7m1xBgrcC8v/r9tUQ8yZQ1C5Qop9jXwcMAuocefCSes4HDAHwUwcCkVKsDuQ06qJV6kiRzpG7bYK0XT0NMSwezNEc/Y/dJu3RXD7DQg5ZSjg5G6cEvIV5I8MezNETT6bnFCYyQwjRpsdIJEQxoipsOXlN/D6ksRUgpSAKIgxllGH3l3gNZjotUPRHIiuAfEQx4yjwdiFPXfszSQ+qmtxaApCGG0YEkhN2ZV3okNBsBuBLAVE4GlRv9FACXA+gV+qUTsiBd9PCJ9QrKN/zn1HV7WQ47YoHN1KloElcFhY3+HQAXAdg09MskpJFrxN46GbzPyaBdo/8EwPW6t5eALUKSoZNOBgO1jDQPD7+8t79CjX6x0C+JkLoQ99R+AEYDmJ7RhCB9vR/AyQDW53AjZN6XbwsApwMYqXnomxORqZpq6zRdATH+npB26KhZavbT84ORRsKVp+r9/GC9EaHBE1LipNANwHYAjgIwBMA9AF6uObPRDH3mCG2DtGVbbRtz6hESMJ+BrBr66MrhBABna+FUOVkfriuJkfqVHqvySIt/H67/71D92xP0t/rob/MenhBCCCGEEEIIIYQQQgghhBBCCCGEEEIIIQQx8P+D5m2/yEYZxAAAAABJRU5ErkJggg==;fontStyle=1;fontColor=#FFFFFF;" parent="1" vertex="1">
          <mxGeometry x="267" y="150" width="56" height="56" as="geometry" />
        </mxCell>
        <mxCell id="OzT394bi7lTzNWAu2zYw-6" value="" style="shape=image;verticalLabelPosition=bottom;labelBackgroundColor=default;verticalAlign=top;aspect=fixed;imageAspect=0;image=data:image/png,iVBORw0KGgoAAAANSUhEUgAAADIAAAAyCAYAAAAeP4ixAAAACXBIWXMAAAsTAAALEwEAmpwYAAADmElEQVR4nO2aaahNURTHf8/8zIQ3KD1DMmQmJUkSkUgS+aBk9sFc8uGlzF+EL0QhvpAoyZBQJCUpU0mmh8w8lHim0K7/rd3p3HPOvfte+yj/WvW6b691/v9zzt5rr7UP/Md//DMYBKwBLgD3gc+yJ8BhYBJQQorRCzgD/E5gx4DmpBCjdNcNyVpgOzAe6AI0BUqBbsBi4K3GfQEOAGWkBH0tEfuANjHjhwI3gJ/yeQCUkwJcEqE9Ob77nYGr8j2OZwwWkbd5vvPmSXxUjCF4xFqR2OYQY4tibMUjToqEWVJdFgoT4woecUckejvE6KQYr/CIZyLR1SFGY+CXrBRPeCohJhm6ILN8t8YTbovAQIcYjayM3wBPOCoCUxxilCuGeSresE4kzDLsumpdwyNmFCAzVyvGTjxivki8cIhxWTH24hG3RGKmQ4xh2kB+BerhCa8lpKNjnFrfy+8FEZjmEKNSMT74rByXi8QjYEUe/hOtOXIIj2gGXBcRUyzlioPyfQd0xzPaAj9kLXLwMxP7pYT0JyW4KEJzc/AZ7/Aki54YHwJNEoxvaL2SC0gR6gM3ReyIiEZhh8beTTD2r6OP5okh2CpmrKnT32fZNfcJ6YMNKBLnSIJJhNRYIioD+WNqiJBZ1v9L5JMKIT2tnpjpwJy1dgfVIUJMw8+gA3BKPsa36ELOJ6jjMyIyZM02ZZNVddr2BtiszWnmt6KJMXf0u3Wh72r1tMwy1haRr73JMXfFosTqGtr2TbvbsPGnCyBkV6EE9ACq9Pd0dULsC82L8C2zds/52JMsTzunnDEZOCfid6yAG6wLmVwRh/0OQjblK8CQXQU8Dgl6Qnunejr7uKTuSBjGAsuA3cCnkFh1wFI1JSo0ti7L/DDl8RJgTFIRc+QYdYfMqoImX+bMY2HIHIm700sjyoUoi0Sp1fKJs1/ac2UwWpk+mJXj4pSH8KhwEdJI+SCX99acQo3U+v5OR3FBxMWoKLSQ9Q4TMWMT8hCyPMRnZb5CKgPJLR/7kGXCtwNGqJX0PMSvTmIqZCvUYQmOe6rFZ2zU0d3qAjwNc9BZzOV3c4L4Bcm6s2Ou0U+Z3+WJV8UJeVQAIcMTVogudjmugx+WgHK1qN1vmWoS12vUpOGcviogxiRcs8W5l2Vibwwk5Zokr9bfQic1LMw3Ku3126IQIabYQh8j7NKG0XxVkSoE64lxIUJM+Rvlk0qYMjgoxDQkIvEHzzBVgMFaqUsAAAAASUVORK5CYII=;" parent="1" vertex="1">
          <mxGeometry x="780" y="156" width="50" height="50" as="geometry" />
        </mxCell>
        <mxCell id="yhdzDH3SITDci6p6ThNo-29" style="edgeStyle=orthogonalEdgeStyle;rounded=0;orthogonalLoop=1;jettySize=auto;html=1;exitX=0.5;exitY=1;exitDx=0;exitDy=0;entryX=0.5;entryY=0;entryDx=0;entryDy=0;strokeColor=#FFFFFF;" edge="1" parent="1" source="OzT394bi7lTzNWAu2zYw-10" target="OzT394bi7lTzNWAu2zYw-12">
          <mxGeometry relative="1" as="geometry" />
        </mxCell>
        <mxCell id="OzT394bi7lTzNWAu2zYw-10" value="&lt;b&gt;REGISTER&lt;/b&gt;" style="rounded=0;whiteSpace=wrap;html=1;fillColor=#f8cecc;strokeColor=#b85450;gradientColor=#ea6b66;" parent="1" vertex="1">
          <mxGeometry x="480" y="140" width="120" height="40" as="geometry" />
        </mxCell>
        <mxCell id="yhdzDH3SITDci6p6ThNo-28" style="edgeStyle=orthogonalEdgeStyle;rounded=0;orthogonalLoop=1;jettySize=auto;html=1;entryX=0.5;entryY=0;entryDx=0;entryDy=0;strokeColor=#FFFFFF;strokeWidth=2.5;" edge="1" parent="1" source="OzT394bi7lTzNWAu2zYw-12" target="OzT394bi7lTzNWAu2zYw-19">
          <mxGeometry relative="1" as="geometry" />
        </mxCell>
        <mxCell id="OzT394bi7lTzNWAu2zYw-12" value="&lt;b&gt;EMAIL AUTH&lt;/b&gt;" style="rounded=0;whiteSpace=wrap;html=1;fillColor=#f8cecc;strokeColor=#b85450;gradientColor=#ea6b66;" parent="1" vertex="1">
          <mxGeometry x="480" y="220" width="120" height="40" as="geometry" />
        </mxCell>
        <mxCell id="yhdzDH3SITDci6p6ThNo-11" style="edgeStyle=orthogonalEdgeStyle;rounded=0;orthogonalLoop=1;jettySize=auto;html=1;exitX=0;exitY=0.5;exitDx=0;exitDy=0;entryX=0.5;entryY=0;entryDx=0;entryDy=0;strokeWidth=2.5;strokeColor=#FFFFFF;startArrow=classicThin;startFill=0;" edge="1" parent="1" source="OzT394bi7lTzNWAu2zYw-19" target="OzT394bi7lTzNWAu2zYw-20">
          <mxGeometry relative="1" as="geometry" />
        </mxCell>
        <mxCell id="yhdzDH3SITDci6p6ThNo-15" style="edgeStyle=orthogonalEdgeStyle;rounded=0;orthogonalLoop=1;jettySize=auto;html=1;exitX=1;exitY=0.5;exitDx=0;exitDy=0;strokeColor=#FFFFFF;strokeWidth=2.5;startArrow=classicThin;startFill=0;" edge="1" parent="1" source="OzT394bi7lTzNWAu2zYw-19" target="OzT394bi7lTzNWAu2zYw-21">
          <mxGeometry relative="1" as="geometry">
            <Array as="points">
              <mxPoint x="660" y="400" />
              <mxPoint x="660" y="340" />
              <mxPoint x="918" y="340" />
            </Array>
          </mxGeometry>
        </mxCell>
        <mxCell id="yhdzDH3SITDci6p6ThNo-16" style="edgeStyle=orthogonalEdgeStyle;rounded=0;orthogonalLoop=1;jettySize=auto;html=1;exitX=0.5;exitY=1;exitDx=0;exitDy=0;strokeColor=#FFFFFF;strokeWidth=2.5;" edge="1" parent="1" source="OzT394bi7lTzNWAu2zYw-19" target="OzT394bi7lTzNWAu2zYw-25">
          <mxGeometry relative="1" as="geometry" />
        </mxCell>
        <mxCell id="yhdzDH3SITDci6p6ThNo-21" style="edgeStyle=orthogonalEdgeStyle;rounded=0;orthogonalLoop=1;jettySize=auto;html=1;exitX=1;exitY=0;exitDx=0;exitDy=0;entryX=0.5;entryY=0;entryDx=0;entryDy=0;strokeColor=#33FF99;strokeWidth=2.5;" edge="1" parent="1" source="OzT394bi7lTzNWAu2zYw-19" target="OzT394bi7lTzNWAu2zYw-10">
          <mxGeometry relative="1" as="geometry">
            <Array as="points">
              <mxPoint x="577" y="290" />
              <mxPoint x="660" y="290" />
              <mxPoint x="660" y="120" />
              <mxPoint x="540" y="120" />
            </Array>
          </mxGeometry>
        </mxCell>
        <mxCell id="yhdzDH3SITDci6p6ThNo-27" value="&lt;font style=&quot;background-color: rgb(0, 0, 0);&quot; color=&quot;#ffffff&quot;&gt;&lt;b&gt;NO&lt;/b&gt;&lt;/font&gt;" style="edgeLabel;html=1;align=center;verticalAlign=middle;resizable=0;points=[];" vertex="1" connectable="0" parent="yhdzDH3SITDci6p6ThNo-21">
          <mxGeometry x="0.1121" relative="1" as="geometry">
            <mxPoint as="offset" />
          </mxGeometry>
        </mxCell>
        <mxCell id="OzT394bi7lTzNWAu2zYw-19" value="&lt;b&gt;&lt;font color=&quot;#ffffff&quot; style=&quot;font-size: 12px;&quot;&gt;LOGIN&lt;/font&gt;&lt;/b&gt;" style="rhombus;whiteSpace=wrap;html=1;fillColor=#660000;" parent="1" vertex="1">
          <mxGeometry x="480" y="360" width="130" height="80" as="geometry" />
        </mxCell>
        <mxCell id="OzT394bi7lTzNWAu2zYw-20" value="" style="shape=image;verticalLabelPosition=bottom;labelBackgroundColor=default;verticalAlign=top;aspect=fixed;imageAspect=0;image=data:image/png,iVBORw0KGgoAAAANSUhEUgAAAQAAAAEACAYAAABccqhmAAAACXBIWXMAAAsTAAALEwEAmpwYAAAWPUlEQVR4nO3dd3hUdb7Hca57r+7d4pxJnxBIIAgkhF6FZE5JBESkiIGQUFcQEVmuKAIBiWUtmRaQ3smcCSir4EoPXZGuSAdpUmSBSZlg2bXd7z7npJBAQhJI5szM7/N+nu8/7rPh0eT7yqlDnToIIYQQQgghhBBCCCGEEEIIIYQQQgghhBBCCCGEEEIIIYQQQgghhBBCCCGEEEIIIYQQQgghhBBCCCGEEEIIIYQQQqhOnTr80gu/j81y6eMzC/zjs1wNlRHteS3FLFdbwZHbJT7TlXD7iHJeL8nuSiyZrNySUf63+KychNtH+VrK11S+dvGfo/yZyp/dfT09hG8GQtWMX3n9T/zS/AhJzm8jyPnx6jLKrlGi7Jok2V0mye5aIMmulZKcv06S83dI9ryDkpx3RrLnXxXt+S5JzqcaGUdejYwo57kkR95VyZF7RpJzD0py7g5JzlsnybkrJTlngeTIMYly3iRJzh2lYCPIznhJvtGGX5Efofy3wA8Q8omk5d8F85mudpI9v48ou8ZKcv6bot21UJRdn0j2/D2S3fWNZHf9KMkuqtrU0KLXMgAVT27VRs79UZJzLkiO3D2SI/cfoiNnoeTIfUOUc8ZKdmcfMcvZVlp+LVjr7y9iPD7rZoBgL+gYb3elSLJrmiS7MkW7a5sk558R5fx/V32xAcA9zr9EOfdrUc7dJjlyMyU5Z5rocCYL9pyOymmJ1j8fyAdKS6MHlPNcIfNmb9HumizZC5ZLcsEBSS7Il+QCujU1vewMHwHc1+TcGtmZJzlyDkiOnOWiI2eyKDt7xWdda6h8T7X+uUIeWOJKelA5ZBftrtGi7FqkLLooF3xfdtErGgDgcQBUMKIj53vRkbNflJ2LJIfzOT7T2U753mv984fcXMLyH0JFhytZshfMFu0F+0W766eqLTsA8IojgGqMKDt/UlCQHDmzldOIOPmGAQvpY3Vd6fKT7K4kSS6YL9ldp+592QGArwEglT+nREfOPCnrRpJym1Prn190Dym310T7zWdFu2uNJLt+rtmlxymAjwNApY4QfpVk5y4pyzlRlJ1NsIweXOdFzj9L8s0RknxzryTfpMKprcXHNQAWAJBKxqmOKN/YLTluPIPnFjwocZkrUrIXLJDsN7+7tfgAgNm7ALUIgFQ8svM7SXYuUO4uaP3zz2yiIy9ctBcslOSCn+9cfAAAAGoRAEfx3PhZgaDritx6Wu8DU4n2giHl/8YHAMw/B+COIwDHHRDcFB3OwVrvhc+XuJJ+J8oFiypffBwB4AjAnQA4i08NFuCBo1pMlAverfry4yIgrgG4GQCHgsCNt2tzB5gtTv7eINkLfgEAeBRY84uAjrueDvzML70eovW++Fxx868Prd7y4wgARwBaAOCkuIVXhmq9Lz5XB9OllwEAXgbyiNuAjrtPe/OZl7TeF5+r1aTjiXHzlHMsHAHgbUDPBSB2wRWKnnIkUet98UkA2rx6moQleTgFwOvAHgkAv/QaNXvtGACoLQBaTT5BraeepNjZ13ANAJ8H4FEAdJ53mZqlHaOoqUcAQG0CoE7qCepoukjCEuWcGBcB8YEg2gHAL7tGbcxn1MUvHpwC1DYAxTPlJD1quUTC0oogwMtAeBegdgAQll2ndrZzFP3qrcUHAO4GoGhap56kDm+dLzw1sCtLDwDwJGDNHwGIDid1mX+F2pjOUvS0o3csPgDQCIDS02baaepkuUxx851FGOB1YLwNeO/LL8pOil34LbW3naOY149XuPQAwEMAKDNTT1GH9IsUO/s6ieppAj4PAK8DV770wrIb1HnuZWprPksxaVVbegDggQC0LD2pJ6jt62eoo/kSxc65TsJS5XYiPhAEnweQoy58l7mXqZ31HLV486R6Xh899dYAAF8AoJxpPe00tX/rPHWyXabYOddIXFbdowR8KrC3fSCIaFce1b1Knd67SG1NZ8td+NsHAPgoAIVzvMy0nnaK2v3tLHUyX6QuM6+Scf4NEjOVRQcA3vSJQMq5u3HxNeo85zJ1mH5BvXCnLHuzqUcpuswcqXQAAEMAlJnUwmmVepxapxXC0MH0DT06/Yp6xGBc5CQxUzlqwF8MogUAoj1HXfIuc69QhxkX1XP2Vm+fpuavnShc7ilFc8fSAwCvS0sAKpoWRdPy1ZPU5vXT1O6d8yoQnTIuU5dZVylu3nXiFSSWKdcb8DcDVWe5hUzlN/h1il3wT+o8+wp1nH6R2lnOU+t3zlDLN05RzLTj1GzKUXWiKxsA4P15MgBVmiknqNW0k9Tmza+p7dvnqEP6Bepovahi0Xnmt9Rl9j8pdt51Mi68QfySHBUN0Rf+ajA5h8RMJ/FLrpNx0TWKnX+VOs+5Qo/OvEQdZ1yk9rYL1M58jtq8c4ZavXmKmqedoGZTj5Usd1UGADCQ1wNwrzOl8Aij1WunqfUbpwsB+dsZavfOOWqXfo7amy6oo2Ciju0SdZp+iTrNUGC5cufM+pa6zLla7ii/acv7/yhfS/maym/hDhnfUEfbN+pvY3XSz1Hb9LPU5u2vqfVbX1OrN05Ty9dPUotpx6n51Kov8f0MAGAgVgFoXmaO1fjETKmNOVoyAADVSAAAAOAIgOEAAAAAAAwHAAAAAGA4AAAAAADDAQAAAAAYDgAAAADAcAAAAAAAhgMAAAAAMBwAAAAAgOEAAAAAAAwHAAAAAGA4AAAAAADDAQAAAAAYDgAAAADAcAAAAAAAhgMAAAAAMBwAAAAAgOEAAAAAAAwHAAAAAGA4AAAAAADDAQAAAAAYDgAAAADAcAAAAAAAhgMAAAAAMBwAAAAAgOEAAAAAAAwHAAAAAGA4AAAAAADDAQAAAAAYDgAAAADAcAAAAAAAhgMAAAAAMBwAAAAAgOEAAAAAAAwHAAAAAGA4AAAAAADDRY3ZY2s1+QRVZ1pWaY5XPKl3nxZumOZl5liNT8yU2pijJdPMDRNd2Uy92xypdKKqOQ3H7rNpvS8+FwAAAACA4aLG7LXgCABHAN5wBBAxdq9F633xuZo8tysVAAAAbwAgfPTuyVrvi88VkbxuQIsJR3ANANcAPBqAJpMOUXDy5gFa74vPVT95bWLkiG0AAAB4NAD1R35GIclbE7XeF58EoN7ANdT4uV24C4C7AB4JQMTze8iQsgUA1CYAykSO2E4tJx3HbUDcBvQMAKYcpvBRu9TlBwBuAECZBsOyKealQ3gOAM8BaArAIxO+oLDhO0qWHwC4CYDCWUuNnt1JLSYexYNAeBDIrQA0nXyYwkd/ToaUrWWWHwC4FYDCqZ+yjhqN3EnNXz6MJwHxJGCtAtBk4lcUMWY3hQ6+c/EBgEYAlECQvIYajdhBzV78glqpj/PiUWA8ClwTABymR146SOHPflbh0gMADwCg+LRAmfDBG6nRqM8oZvwhvAuAdwHuCYAmE7+kBmN2U92h28iQsrloAIBXAFB6IoZkq7cPm43/klpMwstAeBmofACiphyhxi8dpIjnP6ewYdtLLX3pAQBeB0DpqZ+yniJH7KCmL+yjmAmH8TYg428DNp14iBqN26ce3ocO3lLB0gMAnwHgDhAGbaCGI3ZQkzF7KeblQ9Ri8jG8DuzDADR95RBF/nWvuvB1h5Q+tK/q4AjApwAIu32S11H4kGyKHLmTmozZQ9EvfUktFRTweQBeBUBU6lFq8ory230/NRi9m+o/s5PqDtpCoSmby4wBAHhHbgOgzKwrnOT1FDF0M0WO3EGNx+ymqHH7KWbCV9R8Mj4QRGsAolMLf6s3+r8D1PCFPRTx7GdU7y/bKXSQsuDZRVN26QGAF6YpABVN8noKH5pNDZ/Zpt5xaDxmDzV98SA1U3E4ik8Eqskln/AlNX7xAEWO3UsNR39O4SM/pXrDtt226BUNAPD6PBKACmEonHqDN1L4sC3UcMQ2inxOAWI3NRm3n6LGf6EiETPxCPMfCRY16XDhco8/SI+M20eRY/ZQg+d2UfgIZcG3U9iQLRSanF04lS46APDZvBGAsrO+gtlA9QdvovrDNlPE8K3qBcnIUZ/SI6M/V48oGo/dp6KhHFk0Hf8FRU84RNGvHKaYSUc84zMBU49Ss8lHKGriYYqacIiavPwFNXnxADUet58a/XUfRb6whyKf/5wajNpF4SN3Uv3h26nesK0UNngzhSZvustk3zkAgN18F4CqT92S2VBmwlI2UtigTVRvcDbVG7KZ6g/boh55hA/fRhHPbL9zRuygBiN3Fs2n6kSM2EkRz+y4Y5SvET58K9UftlX92sqEDcqmsJRNVDd5422j/LO7LXV1BgCgUgGAigG4v9lYgwMADPg8gNoJAAAAnAIwHAAAAACA4QAAAAAADAcAAAAAYDgAAAAAAMMBAAAAABgOAAAAAMBwAAAAAACGAwAAAAAwHAAAAACA4QAAAAAADAcAAAAAYDgAAAAAAMMBAAAAABgOAAAAAMBwAAAAAACGAwAAAAAwHAAAAACA4QAAAAAADAcAAAAAYDgAAAAAAMMBAAAAABgOAAAAAMBwAAAAAACGAwAAAAAwHAAAAACA4QAAAAAADAcAAAAAYDgAAAAAAMMBAAAAABiubt8VqfUGrqHKZ221Juyus+7eJrm8WX/fg78ePPseEdhc4RiqPVsqnaC+q1O13hefy9BbtgGAYgQ21OBsrMHZpE5ojUy21wLg33ulTet98bkAAI4AAADDAQAAAAAYDgAAAADAcMG97BZcA8A1AG+4BhDQ5wOL1vvic4X0XDoNAAAArwDgiaxXtd4Xn8tfsKTUG/gP3AbEXQDPBiA5mzhhVorW++Jz+fGmxOBemQAAAHg0AIG93icdPz1R633xSQD8RCvV7b8KDwLhOQCPBCBkwAbixBkAoLYA0Asm8k+YQWFJH+NJQDwI5FkAJG0kfcIc4vgMAFCbAJQg0H81HgXGk4AeAUDIgA2kl2aryw8A3ACAioBkJUPf5XgXAI8CawpAcL9VxEkzS5YfALgJgOIJfHzebacEeBkI7wK4AYCB2RTQI7PM4gMADQBQxk+yUvCTS6le0icAAC8D1eoRQEjyZgrss5I4aVa5y48jAA0AuAWBjUJ6yRRWjSMBvA6MtwENVVn+5E0U1PsD0t92uA8APAiAWxBYKPiJRUW3DAEAXge+9yOAkKR1FNhTJr1Y+eLjCMBDACg9Ad3mFF4sTCr/qABHADgCMJT32/6pD8mv2yLihKotPQDwUABKRjRTYPc5FNInqwwGAAAAGIqWPrjfR+TfYylx4nvVXnoA4OkAlIyZ9KKFArvPI0NvB9XtvxofCcboJwIZktZTYJ8PyL/7YuKE6cTxtvtafJwCeAsAt41fwnsU1GMxGfquoLoDPsFnAvooAIaBG9Xf8gFPZJJfvPLgjq2cAQDMAXD7+MdPp8DHF1Bwb5kMT3+EDwX1UgAMA9ZScN+VFNAzk/wS5hInlLfwNgDgDbkTgDuOECQb+XebQ0E9l1BIn+UUmvjR3T81GJ8K7GYANpGh/xp12QOfsJN/1wWkF2dUYdltAMBb0hKAcke0UsBjsyjw8UWkvKYc0vd9qpu4muoqMACAWgFAuVCnLvpTH1JgrywK6LGk6Dd78fl7TUwGrgF4Yh4HQIVjUV9WCug2l4KeWKyeRig4KEcNdZPW4O8FqGTxDUnrKCTxYwru+yEF9Vqunq/7d1tIfvHFT97V1KIDAK/KewCo/MjBP+E9Cug2j4J6LKLgnsuKkFhBhqc/pND+H1cIhTf/xSDKFXdD/08o5OlV6qG6styBPe0U8Phi8uu2gPQJs4kT3bHgAMAr8xkASh0p3G38BCv5SRnklzCT/LvOpoDu8yjg8YUU2GMJBfXMpOBeMgX3WU7BfVZQSN8PKKTfSjL0+zsZnl5FhsTVZBjwiTqhSWsoNGlt2SmDSOHyhiZvoNCkdWVnwFp1adVJ/JhCnl5NIf0+opB+f1eXOLjP+xTUezkFPekoXOYeS9Vban5d55PfY3NJHz9LPRfXq0tnrWS0XnwbTgE8OdYAcNdUvpjuGq0X3wYAPDkAAAAAAMMBAAAAABgOAAAAAMBwAAAAAACGAwAAAAAwHAAAAACA4QAAAAAADAcAAAAAYDgAAAAAAMMBAAAAABgOAAAAAMBwAAAAAACGAwAAAAAwHAAAAACA4QAAAAAADAcAAAAAYDgAAAAAAMMBAAAAABgOAAAAAMBwAAAAAACGAwAAAAAwHAAAAACA4QAAAAAADAcAAAAAYDgAAAAAAMMBAAAAABgOAAAAAMBwAAAAAACGAwAAAAAwHAAAAACA4QAAAAAADKfnTd31gonuf8weMhaPGI63esjYPGQy7nsejrN11XpffC7/hPRQvZD+/wAAAHg4AL8FxNkMWu+LT8YJpmwAAAA8GQCdMWOD1nvis+l4Uys9b/oJpwA4BfBIAIy2f3Ox01tovSc+nV4wjQIAAMADAfhNx1uHa70fTKQXTOPv/XqA1hf/cBHQ5y4CGm2/crxtsNZ7wVQ68d2n9LwpBwDgLoCmABgznJwxo5fW+8BkQdJbwXo+/WMcAeA2oBYA6IwZG/w7zwzVeg+YjxPSU/S86RxOAfAcgFsAMNrO6o3WZOYXz6NqO/9/ONE0RC+kn8c1ADwIVBsA6PiMS5zRNq5O9xkPaf3jjioonE/7vZ+Y/he9YDqAi4B4ErCGANin4zOGYfG9LH+jub1eMC3heNMPuAuAR4GrA4COt/3A8bZFOnFGW61/jtF9FtbJ+r+c0fykXjDZOcH0nfa3APEugCfeBtQZbf/SGW1rOGPGEP/O6X/G4vlggfysP+l5cxLHm9/X8+YcAMA4AEabU2e0rXg4zjJA+dnQ+ucTubO0tAd0oqWtXjBP5ATzZj1v/glHAD4OgNH6K2e0HeR427s63pZQh0/7bywdUlMO+/xEU1dOMKVxvHkTx5sKcArg3QDojDYXZ7Ru5Iy2tIeNlsdwaI+qXlraA3qjtbny/gHHm+ZzvHkfJ5h+xDUAzwRAx1t/4IzWvRxvna8z2p7V89Nj6tRJewA/8qjmSlz5Oz/ju1F63jKQ483pnGDeoD6ExJt+xUVANwGgHMbz1nM63rpeOZTX89YkP2NGlPK9wY860qbuMx7S8+YYP8HUj+PNk/WCeSnHm3dxvOmKnjf/hrsA1QbgN53RdkVntO7ijLYlet42SWfMeEov2prhfjzyrhLTHtTF2xrqjOmijjcNU64x6AXLEk6wrNfz5q84wXxVL1h+YeYjwYzWX3S89VvOaDmk/hY3WpYo5+hcnG2ojs8QdLG2hnWi0x7U+tuGkBuj//rjY+Yg9SiCNyVwvHUQx5tf4HjLqxxvtnK8ebFesKzSC+ZtesFySC9YzusFSx4nmL/TCgCd0fIdx1vzON56nuOtX3K8ZRvHW1ZxvHUxx1utHG+dyvHWF7g4S4pOsMQr/25/fNQcpPy74kcLoRrM0DPtD7rYd/ScaA5/mLc2Um5vKsMZ0+MUUEoPx1t6+vHWRGV0RaP8M+W2WOnhjLa44q/zsGiKVL628mcY2s7/A755CCGEEEIIIYQQQgghhBBCCCGEEEIIIYQQQgghhBBCCCGEEEIIIYQQQgghhBBCCCGEEEIIIYQQQgghhBBCCCGEEEJ1bus/9AtqlLyjIwoAAAAASUVORK5CYII=;" parent="1" vertex="1">
          <mxGeometry x="124" y="364" width="96" height="96" as="geometry" />
        </mxCell>
        <mxCell id="OzT394bi7lTzNWAu2zYw-21" value="" style="shape=image;verticalLabelPosition=bottom;labelBackgroundColor=default;verticalAlign=top;aspect=fixed;imageAspect=0;image=data:image/png,iVBORw0KGgoAAAANSUhEUgAAAQAAAAEACAYAAABccqhmAAAACXBIWXMAAAsTAAALEwEAmpwYAAAWPUlEQVR4nO3dd3hUdb7Hca57r+7d4pxJnxBIIAgkhF6FZE5JBESkiIGQUFcQEVmuKAIBiWUtmRaQ3smcCSir4EoPXZGuSAdpUmSBSZlg2bXd7z7npJBAQhJI5szM7/N+nu8/7rPh0eT7yqlDnToIIYQQQgghhBBCCCGEEEIIIYQQQgghhBBCCCGEEEIIIYQQQgghhBBCCCGEEEIIIYQQQgghhBBCCCGEEEIIIYQQQqhOnTr80gu/j81y6eMzC/zjs1wNlRHteS3FLFdbwZHbJT7TlXD7iHJeL8nuSiyZrNySUf63+KychNtH+VrK11S+dvGfo/yZyp/dfT09hG8GQtWMX3n9T/zS/AhJzm8jyPnx6jLKrlGi7Jok2V0mye5aIMmulZKcv06S83dI9ryDkpx3RrLnXxXt+S5JzqcaGUdejYwo57kkR95VyZF7RpJzD0py7g5JzlsnybkrJTlngeTIMYly3iRJzh2lYCPIznhJvtGGX5Efofy3wA8Q8omk5d8F85mudpI9v48ou8ZKcv6bot21UJRdn0j2/D2S3fWNZHf9KMkuqtrU0KLXMgAVT27VRs79UZJzLkiO3D2SI/cfoiNnoeTIfUOUc8ZKdmcfMcvZVlp+LVjr7y9iPD7rZoBgL+gYb3elSLJrmiS7MkW7a5sk558R5fx/V32xAcA9zr9EOfdrUc7dJjlyMyU5Z5rocCYL9pyOymmJ1j8fyAdKS6MHlPNcIfNmb9HumizZC5ZLcsEBSS7Il+QCujU1vewMHwHc1+TcGtmZJzlyDkiOnOWiI2eyKDt7xWdda6h8T7X+uUIeWOJKelA5ZBftrtGi7FqkLLooF3xfdtErGgDgcQBUMKIj53vRkbNflJ2LJIfzOT7T2U753mv984fcXMLyH0JFhytZshfMFu0F+0W766eqLTsA8IojgGqMKDt/UlCQHDmzldOIOPmGAQvpY3Vd6fKT7K4kSS6YL9ldp+592QGArwEglT+nREfOPCnrRpJym1Prn190Dym310T7zWdFu2uNJLt+rtmlxymAjwNApY4QfpVk5y4pyzlRlJ1NsIweXOdFzj9L8s0RknxzryTfpMKprcXHNQAWAJBKxqmOKN/YLTluPIPnFjwocZkrUrIXLJDsN7+7tfgAgNm7ALUIgFQ8svM7SXYuUO4uaP3zz2yiIy9ctBcslOSCn+9cfAAAAGoRAEfx3PhZgaDritx6Wu8DU4n2giHl/8YHAMw/B+COIwDHHRDcFB3OwVrvhc+XuJJ+J8oFiypffBwB4AjAnQA4i08NFuCBo1pMlAverfry4yIgrgG4GQCHgsCNt2tzB5gtTv7eINkLfgEAeBRY84uAjrueDvzML70eovW++Fxx868Prd7y4wgARwBaAOCkuIVXhmq9Lz5XB9OllwEAXgbyiNuAjrtPe/OZl7TeF5+r1aTjiXHzlHMsHAHgbUDPBSB2wRWKnnIkUet98UkA2rx6moQleTgFwOvAHgkAv/QaNXvtGACoLQBaTT5BraeepNjZ13ANAJ8H4FEAdJ53mZqlHaOoqUcAQG0CoE7qCepoukjCEuWcGBcB8YEg2gHAL7tGbcxn1MUvHpwC1DYAxTPlJD1quUTC0oogwMtAeBegdgAQll2ndrZzFP3qrcUHAO4GoGhap56kDm+dLzw1sCtLDwDwJGDNHwGIDid1mX+F2pjOUvS0o3csPgDQCIDS02baaepkuUxx851FGOB1YLwNeO/LL8pOil34LbW3naOY149XuPQAwEMAKDNTT1GH9IsUO/s6ieppAj4PAK8DV770wrIb1HnuZWprPksxaVVbegDggQC0LD2pJ6jt62eoo/kSxc65TsJS5XYiPhAEnweQoy58l7mXqZ31HLV486R6Xh899dYAAF8AoJxpPe00tX/rPHWyXabYOddIXFbdowR8KrC3fSCIaFce1b1Knd67SG1NZ8td+NsHAPgoAIVzvMy0nnaK2v3tLHUyX6QuM6+Scf4NEjOVRQcA3vSJQMq5u3HxNeo85zJ1mH5BvXCnLHuzqUcpuswcqXQAAEMAlJnUwmmVepxapxXC0MH0DT06/Yp6xGBc5CQxUzlqwF8MogUAoj1HXfIuc69QhxkX1XP2Vm+fpuavnShc7ilFc8fSAwCvS0sAKpoWRdPy1ZPU5vXT1O6d8yoQnTIuU5dZVylu3nXiFSSWKdcb8DcDVWe5hUzlN/h1il3wT+o8+wp1nH6R2lnOU+t3zlDLN05RzLTj1GzKUXWiKxsA4P15MgBVmiknqNW0k9Tmza+p7dvnqEP6Bepovahi0Xnmt9Rl9j8pdt51Mi68QfySHBUN0Rf+ajA5h8RMJ/FLrpNx0TWKnX+VOs+5Qo/OvEQdZ1yk9rYL1M58jtq8c4ZavXmKmqedoGZTj5Usd1UGADCQ1wNwrzOl8Aij1WunqfUbpwsB+dsZavfOOWqXfo7amy6oo2Ciju0SdZp+iTrNUGC5cufM+pa6zLla7ii/acv7/yhfS/maym/hDhnfUEfbN+pvY3XSz1Hb9LPU5u2vqfVbX1OrN05Ty9dPUotpx6n51Kov8f0MAGAgVgFoXmaO1fjETKmNOVoyAADVSAAAAOAIgOEAAAAAAAwHAAAAAGA4AAAAAADDAQAAAAAYDgAAAADAcAAAAAAAhgMAAAAAMBwAAAAAgOEAAAAAAAwHAAAAAGA4AAAAAADDAQAAAAAYDgAAAADAcAAAAAAAhgMAAAAAMBwAAAAAgOEAAAAAAAwHAAAAAGA4AAAAAADDAQAAAAAYDgAAAADAcAAAAAAAhgMAAAAAMBwAAAAAgOEAAAAAAAwHAAAAAGA4AAAAAADDAQAAAAAYDgAAAADAcAAAAAAAhgMAAAAAMBwAAAAAgOEAAAAAAAwHAAAAAGA4AAAAAADDRY3ZY2s1+QRVZ1pWaY5XPKl3nxZumOZl5liNT8yU2pijJdPMDRNd2Uy92xypdKKqOQ3H7rNpvS8+FwAAAACA4aLG7LXgCABHAN5wBBAxdq9F633xuZo8tysVAAAAbwAgfPTuyVrvi88VkbxuQIsJR3ANANcAPBqAJpMOUXDy5gFa74vPVT95bWLkiG0AAAB4NAD1R35GIclbE7XeF58EoN7ANdT4uV24C4C7AB4JQMTze8iQsgUA1CYAykSO2E4tJx3HbUDcBvQMAKYcpvBRu9TlBwBuAECZBsOyKealQ3gOAM8BaArAIxO+oLDhO0qWHwC4CYDCWUuNnt1JLSYexYNAeBDIrQA0nXyYwkd/ToaUrWWWHwC4FYDCqZ+yjhqN3EnNXz6MJwHxJGCtAtBk4lcUMWY3hQ6+c/EBgEYAlECQvIYajdhBzV78glqpj/PiUWA8ClwTABymR146SOHPflbh0gMADwCg+LRAmfDBG6nRqM8oZvwhvAuAdwHuCYAmE7+kBmN2U92h28iQsrloAIBXAFB6IoZkq7cPm43/klpMwstAeBmofACiphyhxi8dpIjnP6ewYdtLLX3pAQBeB0DpqZ+yniJH7KCmL+yjmAmH8TYg428DNp14iBqN26ce3ocO3lLB0gMAnwHgDhAGbaCGI3ZQkzF7KeblQ9Ri8jG8DuzDADR95RBF/nWvuvB1h5Q+tK/q4AjApwAIu32S11H4kGyKHLmTmozZQ9EvfUktFRTweQBeBUBU6lFq8ory230/NRi9m+o/s5PqDtpCoSmby4wBAHhHbgOgzKwrnOT1FDF0M0WO3EGNx+ymqHH7KWbCV9R8Mj4QRGsAolMLf6s3+r8D1PCFPRTx7GdU7y/bKXSQsuDZRVN26QGAF6YpABVN8noKH5pNDZ/Zpt5xaDxmDzV98SA1U3E4ik8Eqskln/AlNX7xAEWO3UsNR39O4SM/pXrDtt226BUNAPD6PBKACmEonHqDN1L4sC3UcMQ2inxOAWI3NRm3n6LGf6EiETPxCPMfCRY16XDhco8/SI+M20eRY/ZQg+d2UfgIZcG3U9iQLRSanF04lS46APDZvBGAsrO+gtlA9QdvovrDNlPE8K3qBcnIUZ/SI6M/V48oGo/dp6KhHFk0Hf8FRU84RNGvHKaYSUc84zMBU49Ss8lHKGriYYqacIiavPwFNXnxADUet58a/XUfRb6whyKf/5wajNpF4SN3Uv3h26nesK0UNngzhSZvustk3zkAgN18F4CqT92S2VBmwlI2UtigTVRvcDbVG7KZ6g/boh55hA/fRhHPbL9zRuygBiN3Fs2n6kSM2EkRz+y4Y5SvET58K9UftlX92sqEDcqmsJRNVDd5422j/LO7LXV1BgCgUgGAigG4v9lYgwMADPg8gNoJAAAAnAIwHAAAAACA4QAAAAAADAcAAAAAYDgAAAAAAMMBAAAAABgOAAAAAMBwAAAAAACGAwAAAAAwHAAAAACA4QAAAAAADAcAAAAAYDgAAAAAAMMBAAAAABgOAAAAAMBwAAAAAACGAwAAAAAwHAAAAACA4QAAAAAADAcAAAAAYDgAAAAAAMMBAAAAABgOAAAAAMBwAAAAAACGAwAAAAAwHAAAAACA4QAAAAAADAcAAAAAYDgAAAAAAMMBAAAAABiubt8VqfUGrqHKZ221Juyus+7eJrm8WX/fg78ePPseEdhc4RiqPVsqnaC+q1O13hefy9BbtgGAYgQ21OBsrMHZpE5ojUy21wLg33ulTet98bkAAI4AAADDAQAAAAAYDgAAAADAcMG97BZcA8A1AG+4BhDQ5wOL1vvic4X0XDoNAAAArwDgiaxXtd4Xn8tfsKTUG/gP3AbEXQDPBiA5mzhhVorW++Jz+fGmxOBemQAAAHg0AIG93icdPz1R633xSQD8RCvV7b8KDwLhOQCPBCBkwAbixBkAoLYA0Asm8k+YQWFJH+NJQDwI5FkAJG0kfcIc4vgMAFCbAJQg0H81HgXGk4AeAUDIgA2kl2aryw8A3ACAioBkJUPf5XgXAI8CawpAcL9VxEkzS5YfALgJgOIJfHzebacEeBkI7wK4AYCB2RTQI7PM4gMADQBQxk+yUvCTS6le0icAAC8D1eoRQEjyZgrss5I4aVa5y48jAA0AuAWBjUJ6yRRWjSMBvA6MtwENVVn+5E0U1PsD0t92uA8APAiAWxBYKPiJRUW3DAEAXge+9yOAkKR1FNhTJr1Y+eLjCMBDACg9Ad3mFF4sTCr/qABHADgCMJT32/6pD8mv2yLihKotPQDwUABKRjRTYPc5FNInqwwGAAAAGIqWPrjfR+TfYylx4nvVXnoA4OkAlIyZ9KKFArvPI0NvB9XtvxofCcboJwIZktZTYJ8PyL/7YuKE6cTxtvtafJwCeAsAt41fwnsU1GMxGfquoLoDPsFnAvooAIaBG9Xf8gFPZJJfvPLgjq2cAQDMAXD7+MdPp8DHF1Bwb5kMT3+EDwX1UgAMA9ZScN+VFNAzk/wS5hInlLfwNgDgDbkTgDuOECQb+XebQ0E9l1BIn+UUmvjR3T81GJ8K7GYANpGh/xp12QOfsJN/1wWkF2dUYdltAMBb0hKAcke0UsBjsyjw8UWkvKYc0vd9qpu4muoqMACAWgFAuVCnLvpTH1JgrywK6LGk6Dd78fl7TUwGrgF4Yh4HQIVjUV9WCug2l4KeWKyeRig4KEcNdZPW4O8FqGTxDUnrKCTxYwru+yEF9Vqunq/7d1tIfvHFT97V1KIDAK/KewCo/MjBP+E9Cug2j4J6LKLgnsuKkFhBhqc/pND+H1cIhTf/xSDKFXdD/08o5OlV6qG6styBPe0U8Phi8uu2gPQJs4kT3bHgAMAr8xkASh0p3G38BCv5SRnklzCT/LvOpoDu8yjg8YUU2GMJBfXMpOBeMgX3WU7BfVZQSN8PKKTfSjL0+zsZnl5FhsTVZBjwiTqhSWsoNGlt2SmDSOHyhiZvoNCkdWVnwFp1adVJ/JhCnl5NIf0+opB+f1eXOLjP+xTUezkFPekoXOYeS9Vban5d55PfY3NJHz9LPRfXq0tnrWS0XnwbTgE8OdYAcNdUvpjuGq0X3wYAPDkAAAAAAMMBAAAAABgOAAAAAMBwAAAAAACGAwAAAAAwHAAAAACA4QAAAAAADAcAAAAAYDgAAAAAAMMBAAAAABgOAAAAAMBwAAAAAACGAwAAAAAwHAAAAACA4QAAAAAADAcAAAAAYDgAAAAAAMMBAAAAABgOAAAAAMBwAAAAAACGAwAAAAAwHAAAAACA4QAAAAAADAcAAAAAYDgAAAAAAMMBAAAAABgOAAAAAMBwAAAAAACGAwAAAAAwHAAAAACA4QAAAAAADKfnTd31gonuf8weMhaPGI63esjYPGQy7nsejrN11XpffC7/hPRQvZD+/wAAAHg4AL8FxNkMWu+LT8YJpmwAAAA8GQCdMWOD1nvis+l4Uys9b/oJpwA4BfBIAIy2f3Ox01tovSc+nV4wjQIAAMADAfhNx1uHa70fTKQXTOPv/XqA1hf/cBHQ5y4CGm2/crxtsNZ7wVQ68d2n9LwpBwDgLoCmABgznJwxo5fW+8BkQdJbwXo+/WMcAeA2oBYA6IwZG/w7zwzVeg+YjxPSU/S86RxOAfAcgFsAMNrO6o3WZOYXz6NqO/9/ONE0RC+kn8c1ADwIVBsA6PiMS5zRNq5O9xkPaf3jjioonE/7vZ+Y/he9YDqAi4B4ErCGANin4zOGYfG9LH+jub1eMC3heNMPuAuAR4GrA4COt/3A8bZFOnFGW61/jtF9FtbJ+r+c0fykXjDZOcH0nfa3APEugCfeBtQZbf/SGW1rOGPGEP/O6X/G4vlggfysP+l5cxLHm9/X8+YcAMA4AEabU2e0rXg4zjJA+dnQ+ucTubO0tAd0oqWtXjBP5ATzZj1v/glHAD4OgNH6K2e0HeR427s63pZQh0/7bywdUlMO+/xEU1dOMKVxvHkTx5sKcArg3QDojDYXZ7Ru5Iy2tIeNlsdwaI+qXlraA3qjtbny/gHHm+ZzvHkfJ5h+xDUAzwRAx1t/4IzWvRxvna8z2p7V89Nj6tRJewA/8qjmSlz5Oz/ju1F63jKQ483pnGDeoD6ExJt+xUVANwGgHMbz1nM63rpeOZTX89YkP2NGlPK9wY860qbuMx7S8+YYP8HUj+PNk/WCeSnHm3dxvOmKnjf/hrsA1QbgN53RdkVntO7ijLYlet42SWfMeEov2prhfjzyrhLTHtTF2xrqjOmijjcNU64x6AXLEk6wrNfz5q84wXxVL1h+YeYjwYzWX3S89VvOaDmk/hY3WpYo5+hcnG2ojs8QdLG2hnWi0x7U+tuGkBuj//rjY+Yg9SiCNyVwvHUQx5tf4HjLqxxvtnK8ebFesKzSC+ZtesFySC9YzusFSx4nmL/TCgCd0fIdx1vzON56nuOtX3K8ZRvHW1ZxvHUxx1utHG+dyvHWF7g4S4pOsMQr/25/fNQcpPy74kcLoRrM0DPtD7rYd/ScaA5/mLc2Um5vKsMZ0+MUUEoPx1t6+vHWRGV0RaP8M+W2WOnhjLa44q/zsGiKVL628mcY2s7/A755CCGEEEIIIYQQQgghhBBCCCGEEEIIIYQQQgghhBBCCCGEEEIIIYQQQgghhBBCCCGEEEIIIYQQQgghhBBCCCGEEEJ1bus/9AtqlLyjIwoAAAAASUVORK5CYII=;" parent="1" vertex="1">
          <mxGeometry x="870" y="352" width="96" height="96" as="geometry" />
        </mxCell>
        <mxCell id="OzT394bi7lTzNWAu2zYw-23" value="&lt;font color=&quot;#ffffff&quot; style=&quot;font-size: 12px;&quot;&gt;&lt;b&gt;Farmer Database&lt;/b&gt;&lt;/font&gt;" style="text;html=1;align=center;verticalAlign=middle;resizable=0;points=[];autosize=1;strokeColor=none;fillColor=none;" parent="1" vertex="1">
          <mxGeometry x="124" y="448" width="120" height="30" as="geometry" />
        </mxCell>
        <mxCell id="OzT394bi7lTzNWAu2zYw-24" value="&lt;font color=&quot;#ffffff&quot; style=&quot;font-size: 12px;&quot;&gt;&lt;b&gt;Farmer Database&lt;/b&gt;&lt;/font&gt;" style="text;html=1;align=center;verticalAlign=middle;resizable=0;points=[];autosize=1;strokeColor=none;fillColor=none;" parent="1" vertex="1">
          <mxGeometry x="870" y="448" width="120" height="30" as="geometry" />
        </mxCell>
        <mxCell id="yhdzDH3SITDci6p6ThNo-17" style="edgeStyle=orthogonalEdgeStyle;rounded=0;orthogonalLoop=1;jettySize=auto;html=1;" edge="1" parent="1" source="OzT394bi7lTzNWAu2zYw-25">
          <mxGeometry relative="1" as="geometry">
            <mxPoint x="545" y="520" as="targetPoint" />
          </mxGeometry>
        </mxCell>
        <mxCell id="yhdzDH3SITDci6p6ThNo-18" style="edgeStyle=orthogonalEdgeStyle;rounded=0;orthogonalLoop=1;jettySize=auto;html=1;entryX=0.5;entryY=0;entryDx=0;entryDy=0;strokeWidth=2.5;strokeColor=#FFFFFF;" edge="1" parent="1" source="OzT394bi7lTzNWAu2zYw-25" target="OzT394bi7lTzNWAu2zYw-26">
          <mxGeometry relative="1" as="geometry" />
        </mxCell>
        <mxCell id="yhdzDH3SITDci6p6ThNo-19" style="edgeStyle=orthogonalEdgeStyle;rounded=0;orthogonalLoop=1;jettySize=auto;html=1;entryX=0.5;entryY=0;entryDx=0;entryDy=0;strokeColor=#FFFFFF;strokeWidth=2.5;" edge="1" parent="1" source="OzT394bi7lTzNWAu2zYw-25" target="yhdzDH3SITDci6p6ThNo-1">
          <mxGeometry relative="1" as="geometry" />
        </mxCell>
        <mxCell id="OzT394bi7lTzNWAu2zYw-25" value="&lt;font color=&quot;#33ff99&quot;&gt;&lt;b&gt;YES&lt;/b&gt;&lt;/font&gt;" style="text;html=1;align=center;verticalAlign=middle;resizable=0;points=[];autosize=1;strokeColor=none;fillColor=none;" parent="1" vertex="1">
          <mxGeometry x="520" y="460" width="50" height="30" as="geometry" />
        </mxCell>
        <mxCell id="yhdzDH3SITDci6p6ThNo-32" style="edgeStyle=orthogonalEdgeStyle;rounded=0;orthogonalLoop=1;jettySize=auto;html=1;strokeColor=#FFFFFF;strokeWidth=1.5;" edge="1" parent="1" source="OzT394bi7lTzNWAu2zYw-26" target="yhdzDH3SITDci6p6ThNo-5">
          <mxGeometry relative="1" as="geometry" />
        </mxCell>
        <mxCell id="yhdzDH3SITDci6p6ThNo-33" style="edgeStyle=orthogonalEdgeStyle;rounded=0;orthogonalLoop=1;jettySize=auto;html=1;exitX=0.25;exitY=1;exitDx=0;exitDy=0;entryX=0.5;entryY=0;entryDx=0;entryDy=0;strokeColor=#FFFFFF;strokeWidth=1.5;" edge="1" parent="1" source="OzT394bi7lTzNWAu2zYw-26" target="yhdzDH3SITDci6p6ThNo-3">
          <mxGeometry relative="1" as="geometry" />
        </mxCell>
        <mxCell id="yhdzDH3SITDci6p6ThNo-34" style="edgeStyle=orthogonalEdgeStyle;rounded=0;orthogonalLoop=1;jettySize=auto;html=1;exitX=0.75;exitY=1;exitDx=0;exitDy=0;entryX=0.5;entryY=0;entryDx=0;entryDy=0;strokeColor=#FFFFFF;strokeWidth=1.5;" edge="1" parent="1" source="OzT394bi7lTzNWAu2zYw-26" target="yhdzDH3SITDci6p6ThNo-4">
          <mxGeometry relative="1" as="geometry" />
        </mxCell>
        <mxCell id="OzT394bi7lTzNWAu2zYw-26" value="&lt;b&gt;&lt;font color=&quot;#ffffff&quot;&gt;FARMER&lt;/font&gt;&lt;/b&gt;" style="rounded=0;whiteSpace=wrap;html=1;fillColor=#B266FF;&#xa;strokeColor=#FFFFFF;strokeWidth=2;strokeColor=#FFFFFF;" parent="1" vertex="1">
          <mxGeometry x="280" y="520" width="130" height="40" as="geometry" />
        </mxCell>
        <mxCell id="yhdzDH3SITDci6p6ThNo-35" style="edgeStyle=orthogonalEdgeStyle;rounded=0;orthogonalLoop=1;jettySize=auto;html=1;exitX=0.5;exitY=1;exitDx=0;exitDy=0;entryX=0.5;entryY=0;entryDx=0;entryDy=0;strokeColor=#FFFFFF;strokeWidth=1.5;" edge="1" parent="1" source="yhdzDH3SITDci6p6ThNo-1" target="yhdzDH3SITDci6p6ThNo-7">
          <mxGeometry relative="1" as="geometry" />
        </mxCell>
        <mxCell id="yhdzDH3SITDci6p6ThNo-1" value="&lt;b&gt;&lt;font color=&quot;#ffffff&quot;&gt;MANAGEMENT&lt;/font&gt;&lt;/b&gt;" style="rounded=0;whiteSpace=wrap;html=1;fillColor=#B266FF;&#xa;strokeColor=#FFFFFF;strokeWidth=2;strokeColor=#FFFFFF;" vertex="1" parent="1">
          <mxGeometry x="680" y="520" width="130" height="40" as="geometry" />
        </mxCell>
        <mxCell id="yhdzDH3SITDci6p6ThNo-37" style="edgeStyle=orthogonalEdgeStyle;rounded=0;orthogonalLoop=1;jettySize=auto;html=1;exitX=0.25;exitY=0;exitDx=0;exitDy=0;strokeColor=#FFFFFF;strokeWidth=1.5;" edge="1" parent="1" source="yhdzDH3SITDci6p6ThNo-3" target="OzT394bi7lTzNWAu2zYw-20">
          <mxGeometry relative="1" as="geometry">
            <Array as="points">
              <mxPoint x="162" y="540" />
              <mxPoint x="270" y="540" />
              <mxPoint x="270" y="412" />
            </Array>
          </mxGeometry>
        </mxCell>
        <mxCell id="yhdzDH3SITDci6p6ThNo-39" style="edgeStyle=orthogonalEdgeStyle;rounded=0;orthogonalLoop=1;jettySize=auto;html=1;exitX=0.5;exitY=1;exitDx=0;exitDy=0;strokeColor=#FFFFFF;strokeWidth=1.5;" edge="1" parent="1">
          <mxGeometry relative="1" as="geometry">
            <mxPoint x="175.75" y="729.9999999999998" as="sourcePoint" />
            <mxPoint x="514.2500000000002" y="849.9999999999998" as="targetPoint" />
            <Array as="points">
              <mxPoint x="175.75" y="790" />
              <mxPoint x="513.75" y="790" />
            </Array>
          </mxGeometry>
        </mxCell>
        <mxCell id="yhdzDH3SITDci6p6ThNo-41" style="edgeStyle=orthogonalEdgeStyle;rounded=0;orthogonalLoop=1;jettySize=auto;html=1;exitX=0.25;exitY=1;exitDx=0;exitDy=0;entryX=0.25;entryY=0;entryDx=0;entryDy=0;strokeColor=#FFFFFF;strokeWidth=1.5;" edge="1" parent="1" source="yhdzDH3SITDci6p6ThNo-3" target="yhdzDH3SITDci6p6ThNo-6">
          <mxGeometry relative="1" as="geometry" />
        </mxCell>
        <mxCell id="yhdzDH3SITDci6p6ThNo-3" value="&lt;b&gt;&lt;font color=&quot;#ffffff&quot;&gt;SERVICES&lt;/font&gt;&lt;/b&gt;" style="rounded=0;whiteSpace=wrap;html=1;fillColor=#0000FF;&#xa;strokeColor=#FFFFFF;strokeWidth=2;strokeColor=#FFFFFF;" vertex="1" parent="1">
          <mxGeometry x="130" y="690" width="130" height="40" as="geometry" />
        </mxCell>
        <mxCell id="yhdzDH3SITDci6p6ThNo-42" style="edgeStyle=orthogonalEdgeStyle;rounded=0;orthogonalLoop=1;jettySize=auto;html=1;exitX=0.5;exitY=1;exitDx=0;exitDy=0;strokeColor=#FFFFFF;strokeWidth=1.5;entryX=0.75;entryY=0;entryDx=0;entryDy=0;" edge="1" parent="1" source="yhdzDH3SITDci6p6ThNo-4" target="yhdzDH3SITDci6p6ThNo-6">
          <mxGeometry relative="1" as="geometry">
            <mxPoint x="200" y="809.9999999999998" as="targetPoint" />
            <Array as="points">
              <mxPoint x="475" y="770" />
              <mxPoint x="200" y="770" />
              <mxPoint x="200" y="810" />
              <mxPoint x="197" y="810" />
            </Array>
          </mxGeometry>
        </mxCell>
        <mxCell id="yhdzDH3SITDci6p6ThNo-4" value="&lt;b&gt;&lt;font color=&quot;#ffffff&quot;&gt;AI SUPPORT&lt;/font&gt;&lt;/b&gt;" style="rounded=0;whiteSpace=wrap;html=1;fillColor=#0000FF;&#xa;strokeColor=#FFFFFF;strokeWidth=2;strokeColor=#FFFFFF;" vertex="1" parent="1">
          <mxGeometry x="410" y="690" width="130" height="40" as="geometry" />
        </mxCell>
        <mxCell id="yhdzDH3SITDci6p6ThNo-30" style="edgeStyle=orthogonalEdgeStyle;rounded=0;orthogonalLoop=1;jettySize=auto;html=1;strokeColor=#FFFFFF;strokeWidth=1.5;" edge="1" parent="1" source="yhdzDH3SITDci6p6ThNo-5" target="OzT394bi7lTzNWAu2zYw-20">
          <mxGeometry relative="1" as="geometry">
            <Array as="points">
              <mxPoint x="332" y="760" />
              <mxPoint x="100" y="760" />
              <mxPoint x="100" y="620" />
              <mxPoint x="90" y="620" />
              <mxPoint x="90" y="412" />
            </Array>
          </mxGeometry>
        </mxCell>
        <mxCell id="yhdzDH3SITDci6p6ThNo-5" value="&lt;b&gt;&lt;font color=&quot;#ffffff&quot;&gt;REGISTORY OF CROPS&lt;/font&gt;&lt;/b&gt;" style="rounded=0;whiteSpace=wrap;html=1;fillColor=#0000FF;&#xa;strokeColor=#FFFFFF;strokeWidth=2;strokeColor=#FFFFFF;" vertex="1" parent="1">
          <mxGeometry x="267" y="690" width="130" height="40" as="geometry" />
        </mxCell>
        <mxCell id="yhdzDH3SITDci6p6ThNo-6" value="&lt;b&gt;&lt;font color=&quot;#ffffff&quot;&gt;USER FEEDBACK&lt;br&gt;&lt;/font&gt;&lt;/b&gt;" style="rounded=0;whiteSpace=wrap;html=1;fillColor=#330000;labelBorderColor=default;gradientColor=none;" vertex="1" parent="1">
          <mxGeometry x="100" y="840" width="130" height="40" as="geometry" />
        </mxCell>
        <mxCell id="yhdzDH3SITDci6p6ThNo-31" style="edgeStyle=orthogonalEdgeStyle;rounded=0;orthogonalLoop=1;jettySize=auto;html=1;strokeColor=#D5E8D4;strokeWidth=1.5;" edge="1" parent="1" source="yhdzDH3SITDci6p6ThNo-7" target="OzT394bi7lTzNWAu2zYw-21">
          <mxGeometry relative="1" as="geometry">
            <Array as="points">
              <mxPoint x="1010" y="660" />
              <mxPoint x="1010" y="400" />
            </Array>
          </mxGeometry>
        </mxCell>
        <mxCell id="yhdzDH3SITDci6p6ThNo-36" style="edgeStyle=orthogonalEdgeStyle;rounded=0;orthogonalLoop=1;jettySize=auto;html=1;strokeColor=#FFFFFF;strokeWidth=1.5;" edge="1" parent="1" source="yhdzDH3SITDci6p6ThNo-7" target="yhdzDH3SITDci6p6ThNo-8">
          <mxGeometry relative="1" as="geometry" />
        </mxCell>
        <mxCell id="yhdzDH3SITDci6p6ThNo-7" value="&lt;b&gt;&lt;font color=&quot;#ffffff&quot;&gt;MANAGE USERS DATA&lt;/font&gt;&lt;/b&gt;" style="rounded=0;whiteSpace=wrap;html=1;fillColor=#0000FF;&#xa;strokeColor=#FFFFFF;strokeWidth=2;strokeColor=#FFFFFF;" vertex="1" parent="1">
          <mxGeometry x="680" y="640" width="130" height="40" as="geometry" />
        </mxCell>
        <mxCell id="yhdzDH3SITDci6p6ThNo-38" style="edgeStyle=orthogonalEdgeStyle;rounded=0;orthogonalLoop=1;jettySize=auto;html=1;strokeColor=#FFFFFF;strokeWidth=1.5;" edge="1" parent="1" source="yhdzDH3SITDci6p6ThNo-8" target="OzT394bi7lTzNWAu2zYw-21">
          <mxGeometry relative="1" as="geometry">
            <Array as="points">
              <mxPoint x="840" y="750" />
              <mxPoint x="840" y="400" />
            </Array>
          </mxGeometry>
        </mxCell>
        <mxCell id="yhdzDH3SITDci6p6ThNo-40" style="edgeStyle=orthogonalEdgeStyle;rounded=0;orthogonalLoop=1;jettySize=auto;html=1;strokeColor=#FFFFFF;strokeWidth=1.5;" edge="1" parent="1" source="yhdzDH3SITDci6p6ThNo-8" target="yhdzDH3SITDci6p6ThNo-9">
          <mxGeometry relative="1" as="geometry">
            <Array as="points">
              <mxPoint x="745" y="790" />
              <mxPoint x="533" y="790" />
            </Array>
          </mxGeometry>
        </mxCell>
        <mxCell id="yhdzDH3SITDci6p6ThNo-8" value="&lt;b&gt;&lt;font color=&quot;#ffffff&quot;&gt;BLOCK/REMOVE SPAMMY USERS&amp;nbsp;&lt;/font&gt;&lt;/b&gt;" style="rounded=0;whiteSpace=wrap;html=1;fillColor=#0000FF;&#xa;strokeColor=#FFFFFF;strokeWidth=2;strokeColor=#FFFFFF;" vertex="1" parent="1">
          <mxGeometry x="680" y="730" width="130" height="40" as="geometry" />
        </mxCell>
        <mxCell id="yhdzDH3SITDci6p6ThNo-9" value="&lt;b&gt;&lt;font color=&quot;#ffffff&quot;&gt;LOGOUT&lt;/font&gt;&lt;/b&gt;" style="ellipse;whiteSpace=wrap;html=1;fillColor=#007FFF;" vertex="1" parent="1">
          <mxGeometry x="410" y="850" width="223" height="70" as="geometry" />
        </mxCell>
      </root>
    </mxGraphModel>
  </diagram>
</mxfile>
